<svg xmlns="http://www.w3.org/2000/svg" xmlns:xlink="http://www.w3.org/1999/xlink" preserveAspectRatio="xMidYMid" width="68" height="85" viewBox="0 0 68 85">

  <path d="M58.083,73.666 C57.600,73.666 57.130,73.620 56.666,73.553 L56.666,73.666 L50.999,73.666 L50.999,76.499 L50.857,76.499 C50.950,76.957 50.999,77.431 50.999,77.916 C50.999,81.828 47.828,84.999 43.916,84.999 L7.083,84.999 C3.170,84.999 -0.001,81.828 -0.001,77.916 C-0.001,77.431 0.049,76.957 0.142,76.499 L-0.001,76.499 L-0.001,25.500 L1.426,25.500 C2.718,27.217 4.767,28.333 7.083,28.333 C7.633,28.333 8.167,28.264 8.681,28.145 C9.613,31.470 14.245,33.999 19.832,33.999 C24.540,33.999 28.576,32.205 30.288,29.651 C32.327,32.275 35.766,33.999 39.666,33.999 C45.374,33.999 50.083,30.303 50.870,25.500 L50.999,25.500 L50.999,33.999 L56.666,33.999 L56.666,34.112 C57.130,34.046 57.600,33.999 58.083,33.999 C63.559,33.999 67.999,38.439 67.999,43.916 L67.999,63.749 C67.999,69.226 63.559,73.666 58.083,73.666 ZM14.166,39.666 L8.499,39.666 L8.499,70.833 L14.166,70.833 L14.166,39.666 ZM28.333,39.666 L22.666,39.666 L22.666,70.833 L28.333,70.833 L28.333,39.666 ZM42.499,39.666 L36.832,39.666 L36.832,70.833 L42.499,70.833 L42.499,39.666 ZM62.332,48.166 C62.332,45.036 59.796,42.499 56.666,42.499 L50.999,42.499 L50.999,48.166 L50.999,59.500 L50.999,65.166 L56.666,65.166 C59.796,65.166 62.332,62.629 62.332,59.500 L62.332,48.166 ZM39.666,28.333 C35.762,28.333 32.331,26.601 30.296,23.971 C28.589,26.532 24.548,28.333 19.832,28.333 C14.245,28.333 9.613,25.803 8.681,22.478 C8.167,22.597 7.633,22.666 7.083,22.666 C3.170,22.666 -0.001,19.495 -0.001,15.583 C-0.001,11.671 3.170,8.499 7.083,8.499 C8.718,8.499 10.220,9.059 11.419,9.991 C12.084,4.365 16.862,-0.001 22.666,-0.001 C28.435,-0.001 33.188,4.314 33.898,9.891 C35.589,9.013 37.557,8.499 39.666,8.499 C45.925,8.499 50.999,12.939 50.999,18.416 C50.999,23.893 45.925,28.333 39.666,28.333 Z"/>
</svg>
