<svg xmlns="http://www.w3.org/2000/svg" xmlns:xlink="http://www.w3.org/1999/xlink" preserveAspectRatio="xMidYMid" width="80" height="70" viewBox="0 0 80 70">

  <path d="M72.499,69.999 L7.499,69.999 C3.357,69.999 -0.001,66.642 -0.001,62.499 L-0.001,17.499 C-0.001,13.357 3.357,10.000 7.499,10.000 L25.088,10.000 C25.036,9.732 24.999,9.456 24.999,9.166 L24.999,3.333 C24.999,1.492 26.119,-0.000 27.499,-0.000 L52.499,-0.000 C53.880,-0.000 54.999,1.492 54.999,3.333 L54.999,9.166 C54.999,9.456 54.963,9.732 54.911,10.000 L72.499,10.000 C76.641,10.000 79.999,13.357 79.999,17.499 L79.999,62.499 C79.999,66.642 76.641,69.999 72.499,69.999 ZM49.999,4.999 L29.999,4.999 L29.999,7.500 L49.999,7.500 L49.999,4.999 ZM39.999,17.499 C27.573,17.499 17.499,27.573 17.499,40.000 C17.499,52.426 27.573,62.499 39.999,62.499 C52.426,62.499 62.499,52.426 62.499,40.000 C62.499,27.573 52.426,17.499 39.999,17.499 ZM39.999,54.999 C31.715,54.999 24.999,48.284 24.999,40.000 C24.999,31.715 31.715,24.999 39.999,24.999 C48.284,24.999 54.999,31.715 54.999,40.000 C54.999,48.284 48.284,54.999 39.999,54.999 ZM39.999,34.999 C37.238,34.999 34.999,37.238 34.999,40.000 C34.999,42.761 37.238,44.999 39.999,44.999 C42.761,44.999 44.999,42.761 44.999,40.000 C44.999,37.238 42.761,34.999 39.999,34.999 Z"/>
</svg>
