<svg xmlns="http://www.w3.org/2000/svg" xmlns:xlink="http://www.w3.org/1999/xlink" preserveAspectRatio="xMidYMid" width="76" height="76" viewBox="0 0 76 76">
  <path d="M71.250,75.999 L14.250,75.999 C11.626,75.999 9.500,73.873 9.500,71.249 L9.500,68.875 L16.625,68.875 L54.625,68.875 L66.500,68.875 L66.500,30.875 L54.625,30.875 L54.625,23.750 L71.250,23.750 C73.873,23.750 76.000,25.876 76.000,28.500 L76.000,71.249 C76.000,73.873 73.873,75.999 71.250,75.999 ZM71.250,47.500 C69.938,47.500 68.874,48.563 68.874,49.875 C68.874,51.186 69.938,52.249 71.250,52.249 C72.561,52.249 73.625,51.186 73.625,49.875 C73.625,48.563 72.561,47.500 71.250,47.500 ZM47.500,66.499 L4.750,66.499 C2.126,66.499 -0.001,64.373 -0.001,61.749 L-0.001,4.749 C-0.001,2.126 2.126,-0.001 4.750,-0.001 L47.500,-0.001 C50.123,-0.001 52.250,2.126 52.250,4.749 L52.250,61.749 C52.250,64.373 50.123,66.499 47.500,66.499 ZM26.125,64.124 C27.436,64.124 28.499,63.061 28.499,61.749 C28.499,60.438 27.436,59.374 26.125,59.374 C24.813,59.374 23.750,60.438 23.750,61.749 C23.750,63.061 24.813,64.124 26.125,64.124 ZM45.125,7.125 L7.125,7.125 L7.125,56.999 L45.125,56.999 L45.125,7.125 Z"/>
</svg>
