<svg xmlns="http://www.w3.org/2000/svg" xmlns:xlink="http://www.w3.org/1999/xlink" preserveAspectRatio="xMidYMid" width="82" height="82" viewBox="0 0 82 82">

  <path d="M52.970,18.789 L63.219,29.040 C64.369,30.190 64.809,31.774 64.557,33.264 L46.943,33.264 L39.303,25.623 L46.136,18.789 C48.023,16.902 51.082,16.902 52.970,18.789 ZM37.595,27.331 L43.527,33.264 L31.662,33.264 L37.595,27.331 ZM76.930,35.829 L79.444,35.829 L79.444,51.374 C76.521,52.087 74.320,55.192 74.320,58.914 C74.320,62.637 76.521,65.742 79.444,66.455 L79.444,81.999 L30.766,81.999 L30.761,82.004 L30.757,81.999 L2.578,81.999 L2.578,66.455 C5.502,65.742 7.703,62.637 7.703,58.914 C7.703,55.192 5.502,52.087 2.578,51.374 L2.578,35.829 L74.320,35.829 L74.320,33.264 L67.974,33.264 C68.225,31.774 67.786,30.190 66.636,29.040 L52.970,15.372 C51.082,13.485 48.023,13.485 46.136,15.372 L36.554,24.955 L35.886,25.623 L35.886,25.623 L28.246,33.264 L17.996,33.264 L51.261,-0.005 L61.614,10.350 C60.140,12.774 60.740,16.309 63.219,18.789 C65.699,21.268 69.233,21.869 71.658,20.394 L82.011,30.748 L76.930,35.829 ZM69.195,48.654 C69.195,45.821 66.901,43.524 64.071,43.524 L51.260,43.524 L48.698,43.524 L17.951,43.524 C15.121,43.524 12.827,45.821 12.827,48.654 L12.827,69.174 C12.827,72.008 15.121,74.304 17.951,74.304 L48.698,74.304 L51.260,74.304 L64.071,74.304 C66.901,74.304 69.195,72.008 69.195,69.174 L69.195,48.654 ZM61.509,71.739 L51.260,71.739 L51.260,46.089 L61.509,46.089 C64.339,46.089 66.633,48.386 66.633,51.219 L66.633,66.610 C66.633,69.443 64.339,71.739 61.509,71.739 ZM20.514,71.739 C17.683,71.739 15.389,69.443 15.389,66.610 L15.389,51.219 C15.389,48.386 17.683,46.089 20.514,46.089 L48.698,46.089 L48.698,71.739 L20.514,71.739 ZM0.016,51.246 L0.016,51.255 L0.012,51.251 L0.016,51.246 Z"/>
</svg>
