<?xml version="1.0" encoding="UTF-8"?><!DOCTYPE svg PUBLIC "-//W3C//DTD SVG 1.1//EN" "http://www.w3.org/Graphics/SVG/1.1/DTD/svg11.dtd"><svg xmlns="http://www.w3.org/2000/svg"><symbol id="beer" viewBox="0 0 68 85" preserveAspectRatio="xMidYMid"><path d="M58.083 73.666c-.483 0-.953-.046-1.417-.113v.113h-5.667v2.833h-.142a7.083 7.083 0 0 1-6.941 8.5H7.083a7.083 7.083 0 0 1-6.941-8.5h-.143V25.5h1.427a7.064 7.064 0 0 0 5.657 2.833c.55 0 1.084-.069 1.598-.188.932 3.325 5.564 5.854 11.151 5.854 4.708 0 8.744-1.794 10.456-4.348 2.039 2.624 5.478 4.348 9.378 4.348 5.708 0 10.417-3.696 11.204-8.499h.129v8.499h5.667v.113a10.02 10.02 0 0 1 1.417-.113c5.476 0 9.916 4.44 9.916 9.917v19.833c0 5.477-4.44 9.917-9.916 9.917zm-43.917-34H8.499v31.167h5.667V39.666zm14.167 0h-5.667v31.167h5.667V39.666zm14.166 0h-5.667v31.167h5.667V39.666zm19.833 8.5a5.666 5.666 0 0 0-5.666-5.667h-5.667V65.166h5.667a5.666 5.666 0 0 0 5.666-5.666V48.166zM39.666 28.333c-3.904 0-7.335-1.732-9.37-4.362-1.707 2.561-5.748 4.362-10.464 4.362-5.587 0-10.219-2.53-11.151-5.855a7.073 7.073 0 0 1-1.598.188 7.083 7.083 0 1 1 0-14.167 7.04 7.04 0 0 1 4.336 1.492c.665-5.626 5.443-9.992 11.247-9.992 5.769 0 10.522 4.315 11.232 9.892a12.504 12.504 0 0 1 5.768-1.392c6.259 0 11.333 4.44 11.333 9.917 0 5.477-5.074 9.917-11.333 9.917z"/></symbol><symbol id="camera" viewBox="0 0 80 70" preserveAspectRatio="xMidYMid"><path d="M72.499 69.999h-65a7.5 7.5 0 0 1-7.5-7.5v-45A7.5 7.5 0 0 1 7.499 10h17.589a4.348 4.348 0 0 1-.089-.834V3.333c0-1.841 1.12-3.333 2.5-3.333h25c1.381 0 2.5 1.492 2.5 3.333v5.833c0 .29-.036.566-.088.834h17.588a7.5 7.5 0 0 1 7.5 7.499v45a7.5 7.5 0 0 1-7.5 7.5zm-22.5-65h-20V7.5h20V4.999zm-10 12.5c-12.426 0-22.5 10.074-22.5 22.501 0 12.426 10.074 22.499 22.5 22.499 12.427 0 22.5-10.073 22.5-22.499 0-12.427-10.073-22.501-22.5-22.501zm0 37.5c-8.284 0-15-6.715-15-14.999 0-8.285 6.716-15.001 15-15.001 8.285 0 15 6.716 15 15.001 0 8.284-6.715 14.999-15 14.999zm0-20a5 5 0 1 0 .002 10.002 5 5 0 0 0-.002-10.002z"/></symbol><symbol id="device" viewBox="0 0 76 76" preserveAspectRatio="xMidYMid"><path d="M71.25 75.999h-57a4.75 4.75 0 0 1-4.75-4.75v-2.374h57v-38H54.625V23.75H71.25A4.75 4.75 0 0 1 76 28.5v42.749a4.75 4.75 0 0 1-4.75 4.75zm0-28.499a2.375 2.375 0 1 0-.001 4.75 2.375 2.375 0 0 0 .001-4.75zM47.5 66.499H4.75a4.75 4.75 0 0 1-4.751-4.75v-57A4.75 4.75 0 0 1 4.75-.001H47.5a4.75 4.75 0 0 1 4.75 4.75v57a4.75 4.75 0 0 1-4.75 4.75zm-21.375-2.375a2.374 2.374 0 1 0 0-4.749 2.374 2.374 0 0 0 0 4.749zm19-56.999h-38v49.874h38V7.125z"/></symbol><symbol id="lock" viewBox="0 0 20 20"><path d="M14.5 8H14V6.5C14 4.019 11.981 2 9.5 2S5 4.019 5 6.5V8h-.5C3.673 8 3 8.673 3 9.5v8c0 .827.673 1.5 1.5 1.5h10c.827 0 1.5-.673 1.5-1.5v-8c0-.827-.673-1.5-1.5-1.5zM6 6.5C6 4.57 7.57 3 9.5 3S13 4.57 13 6.5V8H6V6.5zm9 11a.5.5 0 0 1-.5.5h-10a.5.5 0 0 1-.5-.5v-8a.5.5 0 0 1 .5-.5h10a.5.5 0 0 1 .5.5v8z"/></symbol><symbol id="menu"><path d="M17.5 6h-15a.5.5 0 0 1 0-1h15a.5.5 0 0 1 0 1zm0 5h-15a.5.5 0 0 1 0-1h15a.5.5 0 0 1 0 1zm0 5h-15a.5.5 0 0 1 0-1h15a.5.5 0 0 1 0 1z"/></symbol><symbol id="pencil" viewBox="0 0 20 20"><path d="M19.104.896C18.542.334 17.795.025 17 .025s-1.542.309-2.104.871l-12.75 12.75a.496.496 0 0 0-.116.183l-2 5.5a.5.5 0 0 0 .641.64l5.5-2a.51.51 0 0 0 .183-.116l12.75-12.75c.562-.562.871-1.309.871-2.104s-.309-1.542-.871-2.104zM5.725 17.068l-4.389 1.596 1.596-4.389L14 3.207 16.793 6 5.725 17.068zM18.396 4.396l-.896.896-2.793-2.793.896-.896c.373-.373.869-.578 1.396-.578s1.023.205 1.396.578.578.869.578 1.396-.205 1.023-.578 1.396z"/></symbol><symbol id="social-icon-1" viewBox="0 0 13 28" preserveAspectRatio="xMidYMid"><path d="M8.645 28.002H2.878V13.998H-.004V9.173h2.882V6.275c0-3.937 1.626-6.277 6.249-6.277h3.849v4.826H10.57c-1.799 0-1.918.674-1.918 1.932l-.007 2.417h4.358l-.509 4.825H8.645v14.004z"/></symbol><symbol id="social-icon-2" viewBox="0 0 29 24.03" preserveAspectRatio="xMidYMid"><path d="M29 2.766l-2.719 2.766v.461c0 .505-.08.988-.196 1.457-.063 3.805-1.255 8.851-6.148 12.833C10.312 28.117 0 21.205 0 21.205c8.156 0 8.156-2.766 8.156-2.766-1.812 0-5.437-3.688-5.437-3.688.906.922 2.718 0 2.718 0C.906 11.985.906 9.219.906 9.219c.906.922 2.719 0 2.719 0C-.906 5.532 1.812.922 1.812.922 2.719 5.532 14.5 7.376 14.5 7.376l.15-.077c-.093-.421-.15-1.317-.15-1.767C14.5 2.222 17.137 0 20.39 0c1.791 0 3.375.83 4.456 2.113l.529-.269L28.094 0l-1.813 3.688L29 2.766z"/></symbol><symbol id="social-icon-3" viewBox="0 0 33 33" preserveAspectRatio="xMidYMid"><path d="M16.5 33C7.387 33 0 25.612 0 16.5 0 7.387 7.387 0 16.5 0 25.612 0 33 7.387 33 16.5 33 25.612 25.612 33 16.5 33zm13.06-14.656c-1.623-.404-4.675-.951-8.145-.528 1.826 4.734 2.568 8.45 2.74 9.423a13.187 13.187 0 0 0 5.405-8.895zm-7.769 10.245c-.663-3.631-1.801-7.093-3.115-10.233-3.729 1.03-7.609 3.412-10.525 8.365A13.14 13.14 0 0 0 16.5 29.7c1.883 0 3.67-.401 5.291-1.111zM3.3 16.5c0 3.186 1.129 6.109 3.009 8.389 1.455-2.412 4.978-7.047 11.342-8.841a68.748 68.748 0 0 0-1.27-2.587c-5.995 2.321-10.512 2.484-13.026 2.287-.015.252-.055.496-.055.752zm.408-3.138c3.351.031 7.769-.548 11.579-1.914a68.916 68.916 0 0 0-4.414-6.875 13.207 13.207 0 0 0-7.165 8.789zM16.5 3.3c-1.08 0-2.124.144-3.129.388 1.78 2.173 3.268 4.436 4.533 6.668 3.448-1.631 5.697-3.353 6.724-4.242A13.124 13.124 0 0 0 16.5 3.3zm10.097 4.706c-2.711 1.836-5.258 3.258-7.616 4.348a56.28 56.28 0 0 1 1.475 3.13c2.658-.337 5.723-.179 9.23.72a13.134 13.134 0 0 0-3.089-8.198z"/></symbol><symbol id="social-icon-4" viewBox="0 0 29 27" preserveAspectRatio="xMidYMid"><path d="M24.166 9.643c-1.444 0-2.726-.646-3.612-1.648l-11.11 4.13c.131.437.222.89.222 1.369 0 .287-.036.566-.084.839l10.577 5.149a4.833 4.833 0 0 1 4.007-2.125A4.827 4.827 0 0 1 29 22.178 4.828 4.828 0 0 1 24.166 27a4.82 4.82 0 0 1-4.82-4.695L8.247 16.902a4.826 4.826 0 0 1-3.414 1.408C2.164 18.31 0 16.154 0 13.494c0-2.66 2.164-4.816 4.833-4.816a4.8 4.8 0 0 1 2.909.993l11.644-4.329c-.019-.173-.053-.342-.053-.521A4.827 4.827 0 0 1 24.166 0 4.827 4.827 0 0 1 29 4.821a4.828 4.828 0 0 1-4.834 4.822z"/></symbol><symbol id="tickets" viewBox="0 0 82 82" preserveAspectRatio="xMidYMid"><path d="M52.97 18.789L63.219 29.04a4.816 4.816 0 0 1 1.338 4.224H46.943l-7.64-7.641 6.833-6.834a4.833 4.833 0 0 1 6.834 0zm-15.375 8.542l5.932 5.933H31.662l5.933-5.933zm39.335 8.498h2.514v15.545c-2.923.713-5.124 3.818-5.124 7.54 0 3.723 2.201 6.828 5.124 7.541v15.544H30.766l-.005.005-.004-.005H2.578V66.455c2.924-.713 5.125-3.818 5.125-7.541 0-3.722-2.201-6.827-5.125-7.54V35.829H74.32v-2.565h-6.346a4.819 4.819 0 0 0-1.338-4.224L52.97 15.372a4.833 4.833 0 0 0-6.834 0l-9.582 9.583-.668.668-7.64 7.641h-10.25L51.261-.005 61.614 10.35c-1.474 2.424-.874 5.959 1.605 8.439 2.48 2.479 6.014 3.08 8.439 1.605l10.353 10.354-5.081 5.081zm-7.735 12.825a5.127 5.127 0 0 0-5.124-5.13h-46.12a5.127 5.127 0 0 0-5.124 5.13v20.52a5.126 5.126 0 0 0 5.124 5.13h46.12a5.126 5.126 0 0 0 5.124-5.13v-20.52zm-7.686 23.085H51.26v-25.65h10.249a5.127 5.127 0 0 1 5.124 5.13V66.61a5.126 5.126 0 0 1-5.124 5.129zm-40.995 0a5.126 5.126 0 0 1-5.125-5.129V51.219a5.127 5.127 0 0 1 5.125-5.13h28.184v25.65H20.514zM.016 51.246v.009l-.004-.004.004-.005z"/></symbol><symbol id="user" viewBox="0 0 13 14" preserveAspectRatio="xMidYMid"><path d="M5.958.027S5.471 0 6.96 0c2.275 0 2.546 2.652 2.546 2.652s.027 2.789.027 3.446c0 .656-1.085 1.095-.893.902.027-.027 0 1.75 0 1.75l4.36 3.5V14H.032l-.027-1.723 4.328-3.554V7s-.866-.082-.866-.902V2.652S3.792.027 5.958.027z" fill="#fff" class="cls-1"/></symbol><symbol id="user2" viewBox="0 0 20 20"><path d="M9.5 11C6.467 11 4 8.533 4 5.5S6.467 0 9.5 0 15 2.467 15 5.5 12.533 11 9.5 11zm0-10C7.019 1 5 3.019 5 5.5S7.019 10 9.5 10 14 7.981 14 5.5 11.981 1 9.5 1zM17.5 20h-16C.673 20 0 19.327 0 18.5c0-.068.014-1.685 1.225-3.3.705-.94 1.67-1.687 2.869-2.219C5.558 12.33 7.377 12 9.5 12s3.942.33 5.406.981c1.199.533 2.164 1.279 2.869 2.219C18.986 16.815 19 18.432 19 18.5c0 .827-.673 1.5-1.5 1.5zm-8-7c-3.487 0-6.06.953-7.441 2.756C1.024 17.107 1.001 18.488 1 18.502a.5.5 0 0 0 .5.498h16a.5.5 0 0 0 .5-.5c0-.012-.023-1.393-1.059-2.744C15.559 13.953 12.986 13 9.5 13z"/></symbol></svg>