<?xml version="1.0" encoding="UTF-8"?><!DOCTYPE svg PUBLIC "-//W3C//DTD SVG 1.1//EN" "http://www.w3.org/Graphics/SVG/1.1/DTD/svg11.dtd"><svg xmlns="http://www.w3.org/2000/svg"><symbol id="beer" viewBox="0 0 68 85" preserveAspectRatio="xMidYMid"><path d="M58.083 73.666c-.483 0-.953-.046-1.417-.113v.113h-5.667v2.833h-.142a7.083 7.083 0 0 1-6.941 8.5H7.083a7.083 7.083 0 0 1-6.941-8.5h-.143V25.5h1.427a7.064 7.064 0 0 0 5.657 2.833c.55 0 1.084-.069 1.598-.188.932 3.325 5.564 5.854 11.151 5.854 4.708 0 8.744-1.794 10.456-4.348 2.039 2.624 5.478 4.348 9.378 4.348 5.708 0 10.417-3.696 11.204-8.499h.129v8.499h5.667v.113a10.02 10.02 0 0 1 1.417-.113c5.476 0 9.916 4.44 9.916 9.917v19.833c0 5.477-4.44 9.917-9.916 9.917zm-43.917-34H8.499v31.167h5.667V39.666zm14.167 0h-5.667v31.167h5.667V39.666zm14.166 0h-5.667v31.167h5.667V39.666zm19.833 8.5a5.666 5.666 0 0 0-5.666-5.667h-5.667V65.166h5.667a5.666 5.666 0 0 0 5.666-5.666V48.166zM39.666 28.333c-3.904 0-7.335-1.732-9.37-4.362-1.707 2.561-5.748 4.362-10.464 4.362-5.587 0-10.219-2.53-11.151-5.855a7.073 7.073 0 0 1-1.598.188 7.083 7.083 0 1 1 0-14.167 7.04 7.04 0 0 1 4.336 1.492c.665-5.626 5.443-9.992 11.247-9.992 5.769 0 10.522 4.315 11.232 9.892a12.504 12.504 0 0 1 5.768-1.392c6.259 0 11.333 4.44 11.333 9.917 0 5.477-5.074 9.917-11.333 9.917z"/></symbol><symbol id="camera" viewBox="0 0 80 70" preserveAspectRatio="xMidYMid"><path d="M72.499 69.999h-65a7.5 7.5 0 0 1-7.5-7.5v-45A7.5 7.5 0 0 1 7.499 10h17.589a4.348 4.348 0 0 1-.089-.834V3.333c0-1.841 1.12-3.333 2.5-3.333h25c1.381 0 2.5 1.492 2.5 3.333v5.833c0 .29-.036.566-.088.834h17.588a7.5 7.5 0 0 1 7.5 7.499v45a7.5 7.5 0 0 1-7.5 7.5zm-22.5-65h-20V7.5h20V4.999zm-10 12.5c-12.426 0-22.5 10.074-22.5 22.501 0 12.426 10.074 22.499 22.5 22.499 12.427 0 22.5-10.073 22.5-22.499 0-12.427-10.073-22.501-22.5-22.501zm0 37.5c-8.284 0-15-6.715-15-14.999 0-8.285 6.716-15.001 15-15.001 8.285 0 15 6.716 15 15.001 0 8.284-6.715 14.999-15 14.999zm0-20a5 5 0 1 0 .002 10.002 5 5 0 0 0-.002-10.002z"/></symbol><symbol id="device" viewBox="0 0 76 76" preserveAspectRatio="xMidYMid"><path d="M71.25 75.999h-57a4.75 4.75 0 0 1-4.75-4.75v-2.374h57v-38H54.625V23.75H71.25A4.75 4.75 0 0 1 76 28.5v42.749a4.75 4.75 0 0 1-4.75 4.75zm0-28.499a2.375 2.375 0 1 0-.001 4.75 2.375 2.375 0 0 0 .001-4.75zM47.5 66.499H4.75a4.75 4.75 0 0 1-4.751-4.75v-57A4.75 4.75 0 0 1 4.75-.001H47.5a4.75 4.75 0 0 1 4.75 4.75v57a4.75 4.75 0 0 1-4.75 4.75zm-21.375-2.375a2.374 2.374 0 1 0 0-4.749 2.374 2.374 0 0 0 0 4.749zm19-56.999h-38v49.874h38V7.125z"/></symbol><symbol id="menu"><path d="M17.5 6h-15a.5.5 0 0 1 0-1h15a.5.5 0 0 1 0 1zm0 5h-15a.5.5 0 0 1 0-1h15a.5.5 0 0 1 0 1zm0 5h-15a.5.5 0 0 1 0-1h15a.5.5 0 0 1 0 1z"/></symbol><symbol id="tickets" viewBox="0 0 82 82" preserveAspectRatio="xMidYMid"><path d="M52.97 18.789L63.219 29.04a4.816 4.816 0 0 1 1.338 4.224H46.943l-7.64-7.641 6.833-6.834a4.833 4.833 0 0 1 6.834 0zm-15.375 8.542l5.932 5.933H31.662l5.933-5.933zm39.335 8.498h2.514v15.545c-2.923.713-5.124 3.818-5.124 7.54 0 3.723 2.201 6.828 5.124 7.541v15.544H30.766l-.005.005-.004-.005H2.578V66.455c2.924-.713 5.125-3.818 5.125-7.541 0-3.722-2.201-6.827-5.125-7.54V35.829H74.32v-2.565h-6.346a4.819 4.819 0 0 0-1.338-4.224L52.97 15.372a4.833 4.833 0 0 0-6.834 0l-9.582 9.583-.668.668-7.64 7.641h-10.25L51.261-.005 61.614 10.35c-1.474 2.424-.874 5.959 1.605 8.439 2.48 2.479 6.014 3.08 8.439 1.605l10.353 10.354-5.081 5.081zm-7.735 12.825a5.127 5.127 0 0 0-5.124-5.13h-46.12a5.127 5.127 0 0 0-5.124 5.13v20.52a5.126 5.126 0 0 0 5.124 5.13h46.12a5.126 5.126 0 0 0 5.124-5.13v-20.52zm-7.686 23.085H51.26v-25.65h10.249a5.127 5.127 0 0 1 5.124 5.13V66.61a5.126 5.126 0 0 1-5.124 5.129zm-40.995 0a5.126 5.126 0 0 1-5.125-5.129V51.219a5.127 5.127 0 0 1 5.125-5.13h28.184v25.65H20.514zM.016 51.246v.009l-.004-.004.004-.005z"/></symbol><symbol id="user" viewBox="0 0 13 14" preserveAspectRatio="xMidYMid"><path d="M5.958.027S5.471 0 6.96 0c2.275 0 2.546 2.652 2.546 2.652s.027 2.789.027 3.446c0 .656-1.085 1.095-.893.902.027-.027 0 1.75 0 1.75l4.36 3.5V14H.032l-.027-1.723 4.328-3.554V7s-.866-.082-.866-.902V2.652S3.792.027 5.958.027z" fill="#fff" class="cls-1"/></symbol></svg>