<?xml version="1.0" encoding="UTF-8"?><!DOCTYPE svg PUBLIC "-//W3C//DTD SVG 1.1//EN" "http://www.w3.org/Graphics/SVG/1.1/DTD/svg11.dtd"><svg xmlns="http://www.w3.org/2000/svg"><defs><style>.cls-1{fill:#fff;fill-rule:evenodd}</style></defs><symbol id="menu"><path d="M17.5 6h-15a.5.5 0 0 1 0-1h15a.5.5 0 0 1 0 1zm0 5h-15a.5.5 0 0 1 0-1h15a.5.5 0 0 1 0 1zm0 5h-15a.5.5 0 0 1 0-1h15a.5.5 0 0 1 0 1z"/></symbol><symbol id="user" viewBox="0 0 13 14" preserveAspectRatio="xMidYMid"><path d="M5.958.027S5.471 0 6.96 0c2.275 0 2.546 2.652 2.546 2.652s.027 2.789.027 3.446c0 .656-1.085 1.095-.893.902.027-.027 0 1.75 0 1.75l4.36 3.5V14H.032l-.027-1.723 4.328-3.554V7s-.866-.082-.866-.902V2.652S3.792.027 5.958.027z" fill="#fff" class="cls-1"/></symbol></svg>